G04 #@! TF.FileFunction,Soldermask,Top*
%FSLAX46Y46*%
G04 Gerber Fmt 4.6, Leading zero omitted, Abs format (unit mm)*
G04 Created by KiCad (PCBNEW 4.0.0-rc2-stable) date 8/12/2015 5:56:54 PM*
%MOMM*%
G01*
G04 APERTURE LIST*
%ADD10C,0.100000*%
%ADD11C,0.381000*%
%ADD12R,1.200000X2.000000*%
%ADD13R,2.300000X3.400000*%
%ADD14R,1.600000X1.150000*%
%ADD15R,1.150000X1.600000*%
%ADD16R,1.400000X0.900000*%
%ADD17R,1.300000X1.600000*%
%ADD18R,0.950000X0.600000*%
%ADD19R,0.600000X0.950000*%
%ADD20R,1.275000X1.200000*%
%ADD21R,2.100000X1.300000*%
%ADD22R,1.150000X1.200000*%
%ADD23R,1.200000X1.150000*%
%ADD24R,0.900000X1.300000*%
%ADD25C,2.200000*%
%ADD26C,2.000000*%
%ADD27R,2.432000X2.432000*%
%ADD28O,2.432000X2.432000*%
G04 APERTURE END LIST*
D10*
D11*
X186588400Y-122574000D02*
X187299600Y-122574000D01*
X186588400Y-121774000D02*
X187299600Y-121774000D01*
X178816000Y-106908600D02*
X178816000Y-106197400D01*
X178816000Y-108559600D02*
X178816000Y-107848400D01*
D12*
X180430000Y-130424600D03*
X181680000Y-130424600D03*
X182930000Y-130424600D03*
X184180000Y-130424600D03*
X185430000Y-130424600D03*
X186680000Y-130424600D03*
X187930000Y-130424600D03*
X189180000Y-130424600D03*
X190430000Y-130424600D03*
X191680000Y-130424600D03*
D13*
X178054000Y-133324600D03*
X194030600Y-133629400D03*
D14*
X187391000Y-127889000D03*
X189291000Y-127889000D03*
X187391000Y-125857000D03*
X189291000Y-125857000D03*
X180914000Y-127635000D03*
X182814000Y-127635000D03*
X186370000Y-104597200D03*
X184470000Y-104597200D03*
X186370000Y-106832400D03*
X184470000Y-106832400D03*
D15*
X185293000Y-128077000D03*
X185293000Y-126177000D03*
D10*
G36*
X186592210Y-123225790D02*
X186292490Y-122522210D01*
X187595510Y-122522210D01*
X187295790Y-123225790D01*
X186592210Y-123225790D01*
X186592210Y-123225790D01*
G37*
G36*
X186292490Y-121825790D02*
X186592210Y-121122210D01*
X187295790Y-121122210D01*
X187595510Y-121825790D01*
X186292490Y-121825790D01*
X186292490Y-121825790D01*
G37*
D16*
X186944000Y-122174000D03*
D10*
G36*
X179472590Y-106904790D02*
X178769010Y-107204510D01*
X178769010Y-105901490D01*
X179472590Y-106201210D01*
X179472590Y-106904790D01*
X179472590Y-106904790D01*
G37*
G36*
X178862990Y-107204510D02*
X178159410Y-106904790D01*
X178159410Y-106201210D01*
X178862990Y-105901490D01*
X178862990Y-107204510D01*
X178862990Y-107204510D01*
G37*
G36*
X179472590Y-108555790D02*
X178769010Y-108855510D01*
X178769010Y-107552490D01*
X179472590Y-107852210D01*
X179472590Y-108555790D01*
X179472590Y-108555790D01*
G37*
G36*
X178862990Y-108855510D02*
X178159410Y-108555790D01*
X178159410Y-107852210D01*
X178862990Y-107552490D01*
X178862990Y-108855510D01*
X178862990Y-108855510D01*
G37*
D17*
X183159400Y-122877400D03*
X183159400Y-125077400D03*
D18*
X189254000Y-119396000D03*
X189254000Y-119796000D03*
X189254000Y-120196000D03*
X189254000Y-120596000D03*
X189254000Y-120996000D03*
X189254000Y-121396000D03*
D19*
X189754000Y-121896000D03*
X190154000Y-121896000D03*
X190554000Y-121896000D03*
X190954000Y-121896000D03*
X191354000Y-121896000D03*
X191754000Y-121896000D03*
D18*
X192254000Y-121396000D03*
X192254000Y-120996000D03*
X192254000Y-120596000D03*
X192254000Y-120196000D03*
X192254000Y-119796000D03*
X192254000Y-119396000D03*
D19*
X191754000Y-118896000D03*
X191354000Y-118896000D03*
X190954000Y-118896000D03*
X190554000Y-118896000D03*
X190154000Y-118896000D03*
X189754000Y-118896000D03*
D20*
X191189000Y-120796000D03*
X191189000Y-119996000D03*
X190319000Y-120796000D03*
X190319000Y-119996000D03*
D21*
X182118000Y-109220000D03*
X182118000Y-111120000D03*
X182118000Y-113020000D03*
X188918000Y-113020000D03*
X188918000Y-111120000D03*
X188918000Y-109220000D03*
D22*
X191884300Y-117272500D03*
X191884300Y-115772500D03*
X193446400Y-117247100D03*
X193446400Y-115747100D03*
D23*
X190766000Y-123952000D03*
X192266000Y-123952000D03*
D17*
X180873400Y-125077400D03*
X180873400Y-122877400D03*
D24*
X193434400Y-110185200D03*
X191934400Y-110185200D03*
X193409000Y-108077000D03*
X191909000Y-108077000D03*
D25*
X175895000Y-103505000D03*
X175895000Y-106045000D03*
X175895000Y-108585000D03*
X175895000Y-111125000D03*
X175895000Y-113665000D03*
X175895000Y-116205000D03*
X175895000Y-118745000D03*
X175895000Y-121285000D03*
X175895000Y-123825000D03*
X175895000Y-126365000D03*
X175895000Y-128905000D03*
X175895000Y-131445000D03*
X175895000Y-133985000D03*
X196215000Y-103505000D03*
X196215000Y-106045000D03*
X196215000Y-108585000D03*
X196215000Y-111125000D03*
X196215000Y-113665000D03*
X196215000Y-116205000D03*
X196215000Y-118745000D03*
X196215000Y-121285000D03*
X196215000Y-123825000D03*
X196215000Y-126365000D03*
X196215000Y-128905000D03*
X196215000Y-131445000D03*
X196215000Y-133985000D03*
D26*
X178371500Y-112929400D03*
X178371500Y-128929400D03*
D27*
X181483000Y-119380000D03*
D28*
X184023000Y-119380000D03*
M02*
