G04 #@! TF.FileFunction,Legend,Bot*
%FSLAX46Y46*%
G04 Gerber Fmt 4.6, Leading zero omitted, Abs format (unit mm)*
G04 Created by KiCad (PCBNEW 4.0.0-rc2-stable) date 8/12/2015 5:56:54 PM*
%MOMM*%
G01*
G04 APERTURE LIST*
%ADD10C,0.100000*%
%ADD11C,0.200000*%
%ADD12C,0.120000*%
%ADD13C,0.150000*%
%ADD14C,0.381000*%
%ADD15R,1.100000X1.600000*%
%ADD16R,1.450000X1.180000*%
%ADD17R,1.100000X3.730000*%
%ADD18R,1.540000X2.230000*%
%ADD19R,1.300000X1.330000*%
%ADD20R,1.260000X3.200000*%
%ADD21C,2.200000*%
%ADD22C,2.000000*%
%ADD23R,2.432000X2.432000*%
%ADD24O,2.432000X2.432000*%
G04 APERTURE END LIST*
D10*
D11*
X176900000Y-127700000D02*
X176900000Y-128200000D01*
X177400000Y-127200000D02*
X176900000Y-127700000D01*
X178200000Y-127200000D02*
X177400000Y-127200000D01*
X194233334Y-134452381D02*
X194233334Y-133452381D01*
X193661905Y-134452381D01*
X193661905Y-133452381D01*
X193185715Y-133928571D02*
X192852381Y-133928571D01*
X192709524Y-134452381D02*
X193185715Y-134452381D01*
X193185715Y-133452381D01*
X192709524Y-133452381D01*
X192280953Y-133452381D02*
X192280953Y-134261905D01*
X192233334Y-134357143D01*
X192185715Y-134404762D01*
X192090477Y-134452381D01*
X191900000Y-134452381D01*
X191804762Y-134404762D01*
X191757143Y-134357143D01*
X191709524Y-134261905D01*
X191709524Y-133452381D01*
X191233334Y-134071429D02*
X190471429Y-134071429D01*
X189519048Y-134452381D02*
X189995239Y-134452381D01*
X189995239Y-133452381D01*
X189042858Y-134452381D02*
X189138096Y-134404762D01*
X189185715Y-134357143D01*
X189233334Y-134261905D01*
X189233334Y-133976190D01*
X189185715Y-133880952D01*
X189138096Y-133833333D01*
X189042858Y-133785714D01*
X188900000Y-133785714D01*
X188804762Y-133833333D01*
X188757143Y-133880952D01*
X188709524Y-133976190D01*
X188709524Y-134261905D01*
X188757143Y-134357143D01*
X188804762Y-134404762D01*
X188900000Y-134452381D01*
X189042858Y-134452381D01*
X187852381Y-133785714D02*
X187852381Y-134595238D01*
X187900000Y-134690476D01*
X187947619Y-134738095D01*
X188042858Y-134785714D01*
X188185715Y-134785714D01*
X188280953Y-134738095D01*
X187852381Y-134404762D02*
X187947619Y-134452381D01*
X188138096Y-134452381D01*
X188233334Y-134404762D01*
X188280953Y-134357143D01*
X188328572Y-134261905D01*
X188328572Y-133976190D01*
X188280953Y-133880952D01*
X188233334Y-133833333D01*
X188138096Y-133785714D01*
X187947619Y-133785714D01*
X187852381Y-133833333D01*
X186947619Y-133785714D02*
X186947619Y-134595238D01*
X186995238Y-134690476D01*
X187042857Y-134738095D01*
X187138096Y-134785714D01*
X187280953Y-134785714D01*
X187376191Y-134738095D01*
X186947619Y-134404762D02*
X187042857Y-134452381D01*
X187233334Y-134452381D01*
X187328572Y-134404762D01*
X187376191Y-134357143D01*
X187423810Y-134261905D01*
X187423810Y-133976190D01*
X187376191Y-133880952D01*
X187328572Y-133833333D01*
X187233334Y-133785714D01*
X187042857Y-133785714D01*
X186947619Y-133833333D01*
X186090476Y-134404762D02*
X186185714Y-134452381D01*
X186376191Y-134452381D01*
X186471429Y-134404762D01*
X186519048Y-134309524D01*
X186519048Y-133928571D01*
X186471429Y-133833333D01*
X186376191Y-133785714D01*
X186185714Y-133785714D01*
X186090476Y-133833333D01*
X186042857Y-133928571D01*
X186042857Y-134023810D01*
X186519048Y-134119048D01*
X185614286Y-134452381D02*
X185614286Y-133785714D01*
X185614286Y-133976190D02*
X185566667Y-133880952D01*
X185519048Y-133833333D01*
X185423810Y-133785714D01*
X185328571Y-133785714D01*
X184328571Y-133785714D02*
X184090476Y-134452381D01*
X183852380Y-133785714D01*
X182947618Y-134452381D02*
X183519047Y-134452381D01*
X183233333Y-134452381D02*
X183233333Y-133452381D01*
X183328571Y-133595238D01*
X183423809Y-133690476D01*
X183519047Y-133738095D01*
X182519047Y-134357143D02*
X182471428Y-134404762D01*
X182519047Y-134452381D01*
X182566666Y-134404762D01*
X182519047Y-134357143D01*
X182519047Y-134452381D01*
X181852381Y-133452381D02*
X181757142Y-133452381D01*
X181661904Y-133500000D01*
X181614285Y-133547619D01*
X181566666Y-133642857D01*
X181519047Y-133833333D01*
X181519047Y-134071429D01*
X181566666Y-134261905D01*
X181614285Y-134357143D01*
X181661904Y-134404762D01*
X181757142Y-134452381D01*
X181852381Y-134452381D01*
X181947619Y-134404762D01*
X181995238Y-134357143D01*
X182042857Y-134261905D01*
X182090476Y-134071429D01*
X182090476Y-133833333D01*
X182042857Y-133642857D01*
X181995238Y-133547619D01*
X181947619Y-133500000D01*
X181852381Y-133452381D01*
D12*
X178933334Y-114883333D02*
X178833334Y-114916667D01*
X178666667Y-114916667D01*
X178600000Y-114883333D01*
X178566667Y-114850000D01*
X178533334Y-114783333D01*
X178533334Y-114716667D01*
X178566667Y-114650000D01*
X178600000Y-114616667D01*
X178666667Y-114583333D01*
X178800000Y-114550000D01*
X178866667Y-114516667D01*
X178900000Y-114483333D01*
X178933334Y-114416667D01*
X178933334Y-114350000D01*
X178900000Y-114283333D01*
X178866667Y-114250000D01*
X178800000Y-114216667D01*
X178633334Y-114216667D01*
X178533334Y-114250000D01*
X178233333Y-114916667D02*
X178233333Y-114216667D01*
X178066667Y-114216667D01*
X177966667Y-114250000D01*
X177900000Y-114316667D01*
X177866667Y-114383333D01*
X177833333Y-114516667D01*
X177833333Y-114616667D01*
X177866667Y-114750000D01*
X177900000Y-114816667D01*
X177966667Y-114883333D01*
X178066667Y-114916667D01*
X178233333Y-114916667D01*
X177566667Y-114716667D02*
X177233333Y-114716667D01*
X177633333Y-114916667D02*
X177400000Y-114216667D01*
X177166667Y-114916667D01*
X179033334Y-116583333D02*
X178933334Y-116616667D01*
X178766667Y-116616667D01*
X178700000Y-116583333D01*
X178666667Y-116550000D01*
X178633334Y-116483333D01*
X178633334Y-116416667D01*
X178666667Y-116350000D01*
X178700000Y-116316667D01*
X178766667Y-116283333D01*
X178900000Y-116250000D01*
X178966667Y-116216667D01*
X179000000Y-116183333D01*
X179033334Y-116116667D01*
X179033334Y-116050000D01*
X179000000Y-115983333D01*
X178966667Y-115950000D01*
X178900000Y-115916667D01*
X178733334Y-115916667D01*
X178633334Y-115950000D01*
X177933333Y-116550000D02*
X177966667Y-116583333D01*
X178066667Y-116616667D01*
X178133333Y-116616667D01*
X178233333Y-116583333D01*
X178300000Y-116516667D01*
X178333333Y-116450000D01*
X178366667Y-116316667D01*
X178366667Y-116216667D01*
X178333333Y-116083333D01*
X178300000Y-116016667D01*
X178233333Y-115950000D01*
X178133333Y-115916667D01*
X178066667Y-115916667D01*
X177966667Y-115950000D01*
X177933333Y-115983333D01*
X177633333Y-116616667D02*
X177633333Y-115916667D01*
X177233333Y-116616667D02*
X177533333Y-116216667D01*
X177233333Y-115916667D02*
X177633333Y-116316667D01*
D11*
X180563800Y-128835000D02*
X179852600Y-128835000D01*
D12*
X183266666Y-128416667D02*
X183033333Y-129116667D01*
X182800000Y-128416667D01*
X182333333Y-128750000D02*
X182233333Y-128783333D01*
X182200000Y-128816667D01*
X182166666Y-128883333D01*
X182166666Y-128983333D01*
X182200000Y-129050000D01*
X182233333Y-129083333D01*
X182300000Y-129116667D01*
X182566666Y-129116667D01*
X182566666Y-128416667D01*
X182333333Y-128416667D01*
X182266666Y-128450000D01*
X182233333Y-128483333D01*
X182200000Y-128550000D01*
X182200000Y-128616667D01*
X182233333Y-128683333D01*
X182266666Y-128716667D01*
X182333333Y-128750000D01*
X182566666Y-128750000D01*
X181900000Y-128916667D02*
X181566666Y-128916667D01*
X181966666Y-129116667D02*
X181733333Y-128416667D01*
X181500000Y-129116667D01*
X181366666Y-128416667D02*
X180966666Y-128416667D01*
X181166666Y-129116667D02*
X181166666Y-128416667D01*
X180233334Y-126916667D02*
X179800001Y-126916667D01*
X180033334Y-127183333D01*
X179933334Y-127183333D01*
X179866667Y-127216667D01*
X179833334Y-127250000D01*
X179800001Y-127316667D01*
X179800001Y-127483333D01*
X179833334Y-127550000D01*
X179866667Y-127583333D01*
X179933334Y-127616667D01*
X180133334Y-127616667D01*
X180200001Y-127583333D01*
X180233334Y-127550000D01*
X179600000Y-126916667D02*
X179366667Y-127616667D01*
X179133334Y-126916667D01*
X178966667Y-126916667D02*
X178533334Y-126916667D01*
X178766667Y-127183333D01*
X178666667Y-127183333D01*
X178600000Y-127216667D01*
X178566667Y-127250000D01*
X178533334Y-127316667D01*
X178533334Y-127483333D01*
X178566667Y-127550000D01*
X178600000Y-127583333D01*
X178666667Y-127616667D01*
X178866667Y-127616667D01*
X178933334Y-127583333D01*
X178966667Y-127550000D01*
X178968200Y-133635000D02*
X179034866Y-133601667D01*
X179134866Y-133601667D01*
X179234866Y-133635000D01*
X179301533Y-133701667D01*
X179334866Y-133768333D01*
X179368200Y-133901667D01*
X179368200Y-134001667D01*
X179334866Y-134135000D01*
X179301533Y-134201667D01*
X179234866Y-134268333D01*
X179134866Y-134301667D01*
X179068200Y-134301667D01*
X178968200Y-134268333D01*
X178934866Y-134235000D01*
X178934866Y-134001667D01*
X179068200Y-134001667D01*
X178634866Y-134301667D02*
X178634866Y-133601667D01*
X178234866Y-134301667D01*
X178234866Y-133601667D01*
X177901533Y-134301667D02*
X177901533Y-133601667D01*
X177734867Y-133601667D01*
X177634867Y-133635000D01*
X177568200Y-133701667D01*
X177534867Y-133768333D01*
X177501533Y-133901667D01*
X177501533Y-134001667D01*
X177534867Y-134135000D01*
X177568200Y-134201667D01*
X177634867Y-134268333D01*
X177734867Y-134301667D01*
X177901533Y-134301667D01*
X179785666Y-131112467D02*
X179552333Y-131812467D01*
X179319000Y-131112467D01*
X178852333Y-131445800D02*
X178752333Y-131479133D01*
X178719000Y-131512467D01*
X178685666Y-131579133D01*
X178685666Y-131679133D01*
X178719000Y-131745800D01*
X178752333Y-131779133D01*
X178819000Y-131812467D01*
X179085666Y-131812467D01*
X179085666Y-131112467D01*
X178852333Y-131112467D01*
X178785666Y-131145800D01*
X178752333Y-131179133D01*
X178719000Y-131245800D01*
X178719000Y-131312467D01*
X178752333Y-131379133D01*
X178785666Y-131412467D01*
X178852333Y-131445800D01*
X179085666Y-131445800D01*
X178419000Y-131612467D02*
X178085666Y-131612467D01*
X178485666Y-131812467D02*
X178252333Y-131112467D01*
X178019000Y-131812467D01*
X177885666Y-131112467D02*
X177485666Y-131112467D01*
X177685666Y-131812467D02*
X177685666Y-131112467D01*
X192136733Y-127900867D02*
X192136733Y-127200867D01*
X191803400Y-127900867D02*
X191803400Y-127200867D01*
X191403400Y-127900867D01*
X191403400Y-127200867D01*
X191170067Y-127200867D02*
X190770067Y-127200867D01*
X190970067Y-127900867D02*
X190970067Y-127200867D01*
X189670068Y-127900867D02*
X190003401Y-127900867D01*
X190003401Y-127200867D01*
X189436734Y-127900867D02*
X189436734Y-127200867D01*
X188736735Y-127234200D02*
X188803401Y-127200867D01*
X188903401Y-127200867D01*
X189003401Y-127234200D01*
X189070068Y-127300867D01*
X189103401Y-127367533D01*
X189136735Y-127500867D01*
X189136735Y-127600867D01*
X189103401Y-127734200D01*
X189070068Y-127800867D01*
X189003401Y-127867533D01*
X188903401Y-127900867D01*
X188836735Y-127900867D01*
X188736735Y-127867533D01*
X188703401Y-127834200D01*
X188703401Y-127600867D01*
X188836735Y-127600867D01*
X188403401Y-127900867D02*
X188403401Y-127200867D01*
X188403401Y-127534200D02*
X188003401Y-127534200D01*
X188003401Y-127900867D02*
X188003401Y-127200867D01*
X187770068Y-127200867D02*
X187370068Y-127200867D01*
X187570068Y-127900867D02*
X187570068Y-127200867D01*
X192136733Y-126326067D02*
X192136733Y-125626067D01*
X191803400Y-126326067D02*
X191803400Y-125626067D01*
X191403400Y-126326067D01*
X191403400Y-125626067D01*
X191170067Y-125626067D02*
X190770067Y-125626067D01*
X190970067Y-126326067D02*
X190970067Y-125626067D01*
X190003401Y-126326067D02*
X190003401Y-125626067D01*
X189736735Y-125626067D01*
X189670068Y-125659400D01*
X189636735Y-125692733D01*
X189603401Y-125759400D01*
X189603401Y-125859400D01*
X189636735Y-125926067D01*
X189670068Y-125959400D01*
X189736735Y-125992733D01*
X190003401Y-125992733D01*
X188903401Y-126326067D02*
X189136735Y-125992733D01*
X189303401Y-126326067D02*
X189303401Y-125626067D01*
X189036735Y-125626067D01*
X188970068Y-125659400D01*
X188936735Y-125692733D01*
X188903401Y-125759400D01*
X188903401Y-125859400D01*
X188936735Y-125926067D01*
X188970068Y-125959400D01*
X189036735Y-125992733D01*
X189303401Y-125992733D01*
X188603401Y-125959400D02*
X188370068Y-125959400D01*
X188270068Y-126326067D02*
X188603401Y-126326067D01*
X188603401Y-125626067D01*
X188270068Y-125626067D01*
X188003402Y-126292733D02*
X187903402Y-126326067D01*
X187736735Y-126326067D01*
X187670068Y-126292733D01*
X187636735Y-126259400D01*
X187603402Y-126192733D01*
X187603402Y-126126067D01*
X187636735Y-126059400D01*
X187670068Y-126026067D01*
X187736735Y-125992733D01*
X187870068Y-125959400D01*
X187936735Y-125926067D01*
X187970068Y-125892733D01*
X188003402Y-125826067D01*
X188003402Y-125759400D01*
X187970068Y-125692733D01*
X187936735Y-125659400D01*
X187870068Y-125626067D01*
X187703402Y-125626067D01*
X187603402Y-125659400D01*
X187303401Y-125626067D02*
X187303401Y-126192733D01*
X187270068Y-126259400D01*
X187236735Y-126292733D01*
X187170068Y-126326067D01*
X187036735Y-126326067D01*
X186970068Y-126292733D01*
X186936735Y-126259400D01*
X186903401Y-126192733D01*
X186903401Y-125626067D01*
X186170068Y-126326067D02*
X186403402Y-125992733D01*
X186570068Y-126326067D02*
X186570068Y-125626067D01*
X186303402Y-125626067D01*
X186236735Y-125659400D01*
X186203402Y-125692733D01*
X186170068Y-125759400D01*
X186170068Y-125859400D01*
X186203402Y-125926067D01*
X186236735Y-125959400D01*
X186303402Y-125992733D01*
X186570068Y-125992733D01*
X185870068Y-125959400D02*
X185636735Y-125959400D01*
X185536735Y-126326067D02*
X185870068Y-126326067D01*
X185870068Y-125626067D01*
X185536735Y-125626067D01*
X185197457Y-123262200D02*
X185273648Y-123224105D01*
X185387933Y-123224105D01*
X185502219Y-123262200D01*
X185578410Y-123338390D01*
X185616505Y-123414581D01*
X185654600Y-123566962D01*
X185654600Y-123681248D01*
X185616505Y-123833629D01*
X185578410Y-123909819D01*
X185502219Y-123986010D01*
X185387933Y-124024105D01*
X185311743Y-124024105D01*
X185197457Y-123986010D01*
X185159362Y-123947914D01*
X185159362Y-123681248D01*
X185311743Y-123681248D01*
X184816505Y-124024105D02*
X184816505Y-123224105D01*
X184511743Y-123224105D01*
X184435552Y-123262200D01*
X184397457Y-123300295D01*
X184359362Y-123376486D01*
X184359362Y-123490771D01*
X184397457Y-123566962D01*
X184435552Y-123605057D01*
X184511743Y-123643152D01*
X184816505Y-123643152D01*
X184054600Y-123986010D02*
X183940314Y-124024105D01*
X183749838Y-124024105D01*
X183673648Y-123986010D01*
X183635552Y-123947914D01*
X183597457Y-123871724D01*
X183597457Y-123795533D01*
X183635552Y-123719343D01*
X183673648Y-123681248D01*
X183749838Y-123643152D01*
X183902219Y-123605057D01*
X183978410Y-123566962D01*
X184016505Y-123528867D01*
X184054600Y-123452676D01*
X184054600Y-123376486D01*
X184016505Y-123300295D01*
X183978410Y-123262200D01*
X183902219Y-123224105D01*
X183711743Y-123224105D01*
X183597457Y-123262200D01*
X182645076Y-123224105D02*
X182645076Y-123871724D01*
X182606981Y-123947914D01*
X182568885Y-123986010D01*
X182492695Y-124024105D01*
X182340314Y-124024105D01*
X182264123Y-123986010D01*
X182226028Y-123947914D01*
X182187933Y-123871724D01*
X182187933Y-123224105D01*
X181845076Y-123795533D02*
X181464124Y-123795533D01*
X181921267Y-124024105D02*
X181654600Y-123224105D01*
X181387933Y-124024105D01*
X180664124Y-124024105D02*
X180930791Y-123643152D01*
X181121267Y-124024105D02*
X181121267Y-123224105D01*
X180816505Y-123224105D01*
X180740314Y-123262200D01*
X180702219Y-123300295D01*
X180664124Y-123376486D01*
X180664124Y-123490771D01*
X180702219Y-123566962D01*
X180740314Y-123605057D01*
X180816505Y-123643152D01*
X181121267Y-123643152D01*
X180435553Y-123224105D02*
X179978410Y-123224105D01*
X180206981Y-124024105D02*
X180206981Y-123224105D01*
X184664124Y-124464105D02*
X184206981Y-124464105D01*
X184435552Y-125264105D02*
X184435552Y-124464105D01*
X184016504Y-124464105D02*
X183483171Y-125264105D01*
X183483171Y-124464105D02*
X184016504Y-125264105D01*
X182606980Y-124426010D02*
X183292695Y-125454581D01*
X181883171Y-125264105D02*
X182149838Y-124883152D01*
X182340314Y-125264105D02*
X182340314Y-124464105D01*
X182035552Y-124464105D01*
X181959361Y-124502200D01*
X181921266Y-124540295D01*
X181883171Y-124616486D01*
X181883171Y-124730771D01*
X181921266Y-124806962D01*
X181959361Y-124845057D01*
X182035552Y-124883152D01*
X182340314Y-124883152D01*
X181616504Y-124464105D02*
X181083171Y-125264105D01*
X181083171Y-124464105D02*
X181616504Y-125264105D01*
D13*
X192399000Y-102393000D02*
X190499000Y-102393000D01*
X190499000Y-102393000D02*
X189599000Y-105393000D01*
X189599000Y-105393000D02*
X180699000Y-105393000D01*
X180699000Y-105393000D02*
X180699000Y-102393000D01*
X180699000Y-102393000D02*
X179999000Y-102393000D01*
X179999000Y-102393000D02*
X179999000Y-116593000D01*
X179999000Y-116593000D02*
X193099000Y-116593000D01*
X193099000Y-116593000D02*
X193099000Y-105493000D01*
X193099000Y-105493000D02*
X192399000Y-105493000D01*
X192399000Y-105493000D02*
X192399000Y-104593000D01*
X192399000Y-104593000D02*
X192999000Y-104593000D01*
X192999000Y-104593000D02*
X192999000Y-103393000D01*
X192999000Y-103393000D02*
X192399000Y-103393000D01*
X192399000Y-103393000D02*
X192399000Y-102393000D01*
D11*
X182448105Y-108138981D02*
X182448105Y-108948505D01*
X182400486Y-109043743D01*
X182352867Y-109091362D01*
X182257629Y-109138981D01*
X182067152Y-109138981D01*
X181971914Y-109091362D01*
X181924295Y-109043743D01*
X181876676Y-108948505D01*
X181876676Y-108138981D01*
X180971914Y-108472314D02*
X180971914Y-109138981D01*
X181210010Y-108091362D02*
X181448105Y-108805648D01*
X180829057Y-108805648D01*
%LPC*%
D14*
X179070000Y-123799600D02*
X179070000Y-123088400D01*
X179070000Y-125450600D02*
X179070000Y-124739400D01*
X193395600Y-126390400D02*
X193395600Y-125679200D01*
X193446400Y-127914400D02*
X193446400Y-127203200D01*
D10*
G36*
X179116990Y-124095510D02*
X178413410Y-123795790D01*
X178413410Y-123092210D01*
X179116990Y-122792490D01*
X179116990Y-124095510D01*
X179116990Y-124095510D01*
G37*
G36*
X179726590Y-123795790D02*
X179023010Y-124095510D01*
X179023010Y-122792490D01*
X179726590Y-123092210D01*
X179726590Y-123795790D01*
X179726590Y-123795790D01*
G37*
G36*
X179116990Y-125746510D02*
X178413410Y-125446790D01*
X178413410Y-124743210D01*
X179116990Y-124443490D01*
X179116990Y-125746510D01*
X179116990Y-125746510D01*
G37*
G36*
X179726590Y-125446790D02*
X179023010Y-125746510D01*
X179023010Y-124443490D01*
X179726590Y-124743210D01*
X179726590Y-125446790D01*
X179726590Y-125446790D01*
G37*
G36*
X193442590Y-126686310D02*
X192739010Y-126386590D01*
X192739010Y-125683010D01*
X193442590Y-125383290D01*
X193442590Y-126686310D01*
X193442590Y-126686310D01*
G37*
G36*
X194052190Y-126386590D02*
X193348610Y-126686310D01*
X193348610Y-125383290D01*
X194052190Y-125683010D01*
X194052190Y-126386590D01*
X194052190Y-126386590D01*
G37*
G36*
X193493390Y-128210310D02*
X192789810Y-127910590D01*
X192789810Y-127207010D01*
X193493390Y-126907290D01*
X193493390Y-128210310D01*
X193493390Y-128210310D01*
G37*
G36*
X194102990Y-127910590D02*
X193399410Y-128210310D01*
X193399410Y-126907290D01*
X194102990Y-127207010D01*
X194102990Y-127910590D01*
X194102990Y-127910590D01*
G37*
D15*
X181149000Y-104013000D03*
X182249000Y-104013000D03*
X183349000Y-104013000D03*
X184449000Y-104013000D03*
X185549000Y-104013000D03*
X186649000Y-104013000D03*
X187749000Y-104013000D03*
X188849000Y-104013000D03*
D16*
X186374000Y-116503000D03*
D17*
X179989000Y-115228000D03*
D18*
X192729000Y-103978000D03*
D19*
X190639000Y-116428000D03*
D17*
X192949000Y-115228000D03*
D20*
X180069000Y-104463000D03*
D21*
X175895000Y-103505000D03*
X175895000Y-106045000D03*
X175895000Y-108585000D03*
X175895000Y-111125000D03*
X175895000Y-113665000D03*
X175895000Y-116205000D03*
X175895000Y-118745000D03*
X175895000Y-121285000D03*
X175895000Y-123825000D03*
X175895000Y-126365000D03*
X175895000Y-128905000D03*
X175895000Y-131445000D03*
X175895000Y-133985000D03*
X196215000Y-103505000D03*
X196215000Y-106045000D03*
X196215000Y-108585000D03*
X196215000Y-111125000D03*
X196215000Y-113665000D03*
X196215000Y-116205000D03*
X196215000Y-118745000D03*
X196215000Y-121285000D03*
X196215000Y-123825000D03*
X196215000Y-126365000D03*
X196215000Y-128905000D03*
X196215000Y-131445000D03*
X196215000Y-133985000D03*
D22*
X178371500Y-112929400D03*
X178371500Y-128929400D03*
D23*
X181483000Y-119380000D03*
D24*
X184023000Y-119380000D03*
M02*
