M48
;DRILL file {KiCad 4.0.0-rc2-stable} date 8/12/2015 5:56:56 PM
;FORMAT={-:-/ absolute / metric / decimal}
FMAT,2
METRIC,TZ
T1C0.400
T2C0.900
T3C1.016
%
G90
G05
M71
T1
X178.206Y-116.332
X178.511Y-115.062
X178.664Y-104.445
X180.416Y-132.41
X180.569Y-134.239
X181.635Y-132.309
X182.728Y-126.492
X183.337Y-105.613
X184.074Y-108.89
X184.175Y-134.239
X184.582Y-122.911
X185.039Y-107.925
X185.039Y-124.485
X185.369Y-110.998
X185.395Y-132.969
X186.055Y-112.395
X186.385Y-105.766
X186.69Y-109.728
X188.265Y-118.923
X188.443Y-134.188
X188.849Y-118.326
X188.874Y-114.859
X189.154Y-132.512
X190.119Y-104.584
X190.5Y-108.255
X190.652Y-112.065
X190.754Y-109.525
X190.932Y-126.314
X190.957Y-103.429
X191.135Y-104.775
X191.541Y-134.239
X191.745Y-125.552
X192.735Y-118.516
X193.523Y-122.606
X193.954Y-112.42
X193.954Y-124.358
X194.437Y-105.283
X194.564Y-116.484
T2
X175.895Y-103.505
X175.895Y-106.045
X175.895Y-108.585
X175.895Y-111.125
X175.895Y-113.665
X175.895Y-116.205
X175.895Y-118.745
X175.895Y-121.285
X175.895Y-123.825
X175.895Y-126.365
X175.895Y-128.905
X175.895Y-131.445
X175.895Y-133.985
X178.371Y-112.929
X178.371Y-128.929
X196.215Y-103.505
X196.215Y-106.045
X196.215Y-108.585
X196.215Y-111.125
X196.215Y-113.665
X196.215Y-116.205
X196.215Y-118.745
X196.215Y-121.285
X196.215Y-123.825
X196.215Y-126.365
X196.215Y-128.905
X196.215Y-131.445
X196.215Y-133.985
T3
X181.483Y-119.38
X184.023Y-119.38
T0
M30
